<svg xmlns="http://www.w3.org/2000/svg" version="1.1" xmlns:xlink="http://www.w3.org/1999/xlink" xmlns:svgjs="http://svgjs.dev/svgjs" width="128" height="128" viewBox="0 0 128 128"><g transform="matrix(0.8046875,0,0,0.8046875,12.760752631578946,12.746723253524841)"><svg viewBox="0 0 95 95" data-background-color="#ffffff" preserveAspectRatio="xMidYMid meet" height="128" width="128" xmlns="http://www.w3.org/2000/svg" xmlns:xlink="http://www.w3.org/1999/xlink"><g id="tight-bounds" transform="matrix(1,0,0,1,-0.24049999999999727,-0.22756028237728287)"><svg viewBox="0 0 95.481 95.45512056475458" height="95.45512056475458" width="95.481"><g><svg viewBox="0 0 95.481 95.45512056475458" height="95.45512056475458" width="95.481"><g><svg viewBox="0 0 95.481 95.45512056475458" height="95.45512056475458" width="95.481"><g id="textblocktransform"><svg viewBox="0 0 95.481 95.45512056475458" height="95.45512056475458" width="95.481" id="textblock"><g><svg viewBox="0 0 95.481 95.45512056475458" height="95.45512056475458" width="95.481"><g><svg viewBox="0 0 95.481 95.45512056475458" height="95.45512056475458" width="95.481"><g><svg xmlns="http://www.w3.org/2000/svg" xmlns:xlink="http://www.w3.org/1999/xlink" version="1.1" x="0" y="0" viewBox="10 11 81.168 81.146" enable-background="new 0 0 100 100" xml:space="preserve" height="95.45512056475458" width="95.481" class="icon-icon-0" data-fill-palette-color="accent" id="icon-0"><g fill="#ff851b" data-fill-palette-color="accent"><path fill-rule="evenodd" clip-rule="evenodd" fill="#ff851b" d="M91.168 41.35h-0.01V26c0-8.25-6.75-15-15-15H25.012c-8.25 0-15 6.75-15 15v15.354H10c0 3.527 0 7.388 0 11.271h0.012v24.521c0 8.25 6.75 15 15 15h51.146c8.25 0 15-6.75 15-15V52.633h0.006C91.164 52.271 91.167 44.76 91.168 41.35zM76.158 15c6.065 0 11 4.935 11 11v15.352c-0.611-0.001-1.327-0.002-2.059-0.002h-0.548c-1.37 0-2.695 0.003-3.335 0.014-0.418 0.007-0.65-0.128-0.844-0.501-1.312-2.526-2.26-5.181-2.844-7.964-0.197-0.94-0.574-1.46-1.521-1.446-1.363 0.019-2.764 0.104-4.08 0.437-3.955 0.997-7.4 3.062-10.646 5.46-1.553 1.147-3.004 2.435-4.512 3.646-0.223 0.178-0.496 0.292-0.863 0.504 0-5.758 0-11.444 0-17.124 0-3.124 0-6.247 0-9.375H76.158zM14.012 26c0-6.065 4.935-11 11-11h19.572c0 2.541 0 5.081 0 7.625 0 6.243 0 12.507 0 18.859-0.514-0.176-0.982-0.255-1.365-0.481-0.77-0.458-1.496-0.986-2.227-1.504-4.264-3.028-9.143-4.54-14.145-5.747-0.375-0.09-0.766-0.128-1.15-0.149-2.104-0.114-2.791 0.26-3.508 2.222-0.594 1.631-1.006 3.327-1.529 4.984-0.068 0.213-0.326 0.52-0.5 0.521-1.337 0.018-2.675 0.022-4.024 0.024h-2.124V26zM14.012 77.146v-24.53c4.872 0 9.697 0 14.646 0-0.498 0.536-0.889 0.983-1.309 1.402-1.525 1.518-3.053 3.034-4.6 4.531-0.537 0.521-0.57 1.12-0.473 1.8 0.688 4.743 1.244 9.498 1.197 14.303-0.01 0.865-0.074 1.733-0.119 2.758 0.246-0.141 0.439-0.192 0.545-0.321 0.902-1.096 1.695-2.296 2.695-3.291 3.426-3.414 6.967-6.718 10.383-10.142 2.459-2.466 4.791-5.059 7.178-7.596 0.113-0.119 0.227-0.239 0.43-0.457 0 9.115 0 18.15 0 27.189 0 1.784 0 3.568 0 5.354H25.012C18.946 88.146 14.012 83.211 14.012 77.146zM76.158 88.146H55.91c0-0.812 0-1.625 0-2.438 0-10.64 0-21.257 0-31.937 2.369 2.76 4.607 5.495 6.988 8.102 2.234 2.445 4.678 4.7 6.926 7.135 2.277 2.47 4.43 5.057 6.637 7.591 0.125 0.144 0.248 0.285 0.467 0.537 0.057-0.314 0.111-0.506 0.125-0.702 0.434-5.621 0.855-11.242 1.309-16.86 0.045-0.582-0.064-1.061-0.467-1.451-1.699-1.649-3.406-3.29-5.115-4.931-0.172-0.164-0.359-0.312-0.646-0.559 4.668 0 9.242 0 13.836 0 0.396 0 0.793 0 1.189 0v24.513C87.158 83.211 82.224 88.146 76.158 88.146z" data-fill-palette-color="accent"></path></g></svg></g></svg></g></svg></g></svg></g></svg></g><g></g></svg></g><defs></defs></svg><rect width="95.481" height="95.45512056475458" fill="none" stroke="none" visibility="hidden"></rect></g></svg></g></svg>