<svg xmlns="http://www.w3.org/2000/svg" version="1.1" xmlns:xlink="http://www.w3.org/1999/xlink" xmlns:svgjs="http://svgjs.dev/svgjs" width="2000" height="717" viewBox="0 0 2000 717"><g transform="matrix(1,0,0,1,-1.2121212121212466,-0.6694239517472056)"><svg viewBox="0 0 396 142" data-background-color="#ffffff" preserveAspectRatio="xMidYMid meet" height="717" width="2000" xmlns="http://www.w3.org/2000/svg" xmlns:xlink="http://www.w3.org/1999/xlink"><g id="tight-bounds" transform="matrix(1,0,0,1,0.2400000000000091,0.13257768639903134)"><svg viewBox="0 0 395.52 141.73484462720194" height="141.73484462720194" width="395.52"><g><svg viewBox="0 0 682.1010864440989 244.43135999999996" height="141.73484462720194" width="395.52"><g transform="matrix(1,0,0,1,286.5810864440989,32.94416056537101)"><svg viewBox="0 0 395.52 178.54303886925794" height="178.54303886925794" width="395.52"><g id="textblocktransform"><svg viewBox="0 0 395.52 178.54303886925794" height="178.54303886925794" width="395.52" id="textblock"><g><svg viewBox="0 0 395.52 178.54303886925794" height="178.54303886925794" width="395.52"><g transform="matrix(1,0,0,1,0,0)"><svg width="395.52" viewBox="2.4 -38.2 113.19 51.1" height="178.54303886925794" data-palette-color="#093d65"><path d="M2.7-17.45Q3.6-22.55 6.63-26.63 9.65-30.7 14.05-32.98 18.45-35.25 23.3-35.25L23.3-35.25Q28.9-35.25 32.68-32.5 36.45-29.75 37.55-24.75L37.55-24.75 32.1-24.75Q31.2-27.8 28.73-29.48 26.25-31.15 22.6-31.15L22.6-31.15Q18.95-31.15 15.73-29.48 12.5-27.8 10.3-24.68 8.1-21.55 7.35-17.45L7.35-17.45Q7.1-16.15 7.1-14.45L7.1-14.45Q7.1-9.55 10-6.68 12.9-3.8 17.75-3.8L17.75-3.8Q22.9-3.8 26.75-6.88 30.6-9.95 32.05-15.2L32.05-15.2 18.15-15.2 18.8-18.8 37.55-18.8 36.9-15.3Q35.75-11 32.83-7.43 29.9-3.85 25.78-1.78 21.65 0.3 17.05 0.3L17.05 0.3Q12.75 0.3 9.43-1.48 6.1-3.25 4.25-6.5 2.4-9.75 2.4-13.95L2.4-13.95Q2.4-15.65 2.7-17.45L2.7-17.45ZM48.15-31.85Q47.05-31.85 46.32-32.58 45.6-33.3 45.6-34.4L45.6-34.4Q45.6-35.9 46.7-36.98 47.8-38.05 49.25-38.05L49.25-38.05Q50.4-38.05 51.1-37.35 51.8-36.65 51.8-35.5L51.8-35.5Q51.8-34 50.7-32.93 49.6-31.85 48.15-31.85L48.15-31.85ZM45.05-27.4L49.6-27.4 44.75 0 40.2 0 45.05-27.4ZM69.45-34.4Q66.4-34.4 64.97-33.23 63.55-32.05 63.1-29.35L63.1-29.35 62.75-27.4 68.5-27.4 67.85-23.65 62.1-23.65 57.9 0 53.35 0 57.5-23.65 54-23.65 54.65-27.4 58.15-27.4 58.5-29.35Q59.35-33.95 62.1-36.08 64.85-38.2 70.1-38.2L70.1-38.2 69.45-34.4ZM78.69-23.65L75.84-7.5Q75.69-6.75 75.69-6.2L75.69-6.2Q75.69-4.95 76.47-4.4 77.24-3.85 78.99-3.85L78.99-3.85 82.34-3.85 81.64 0 77.54 0Q74.29 0 72.67-1.25 71.04-2.5 71.04-5.35L71.04-5.35Q71.04-6.45 71.24-7.5L71.24-7.5 74.09-23.65 70.59-23.65 71.24-27.4 74.79-27.4 75.99-34.3 80.59-34.3 79.39-27.4 86.49-27.4 85.84-23.65 78.69-23.65ZM88.74-27.4L93.79-27.4 98.44-5.3 110.89-27.4 115.59-27.4 91.99 12.9 87.24 12.9 94.99-0.3 88.74-27.4Z" opacity="1" transform="matrix(1,0,0,1,0,0)" fill="#093d65" class="wordmark-text-0" data-fill-palette-color="primary" id="text-0"></path></svg></g></svg></g></svg></g></svg></g><g><svg viewBox="0 0 244.43135999999996 244.43135999999996" height="244.43135999999996" width="244.43135999999996"><g><svg xmlns="http://www.w3.org/2000/svg" xmlns:xlink="http://www.w3.org/1999/xlink" version="1.1" x="0" y="0" viewBox="0 0 100 100" enable-background="new 0 0 100 100" xml:space="preserve" height="244.43135999999996" width="244.43135999999996" class="icon-icon-0" data-fill-palette-color="accent" id="icon-0"><g fill="#f98e54" data-fill-palette-color="accent"></g><g fill="#f98e54" data-fill-palette-color="accent"><g fill="#f98e54" data-fill-palette-color="accent"><path d="M42.925 42.511c0-1.162-0.537-1.644-1.596-1.644h-0.038c-1.057 0-1.595 0.482-1.595 1.644v0.055c0 1.165 0.537 1.644 1.595 1.644h0.038c1.059 0 1.596-0.48 1.596-1.644V42.511zM32.957 73.986c-1.058 0-1.596 0.484-1.596 1.644v0.055c0 1.165 0.537 1.644 1.596 1.644h0.038c1.058 0 1.596-0.48 1.596-1.644v-0.055c0-1.161-0.537-1.644-1.596-1.644H32.957zM37.206 68.332c-1.058 0-1.596 0.484-1.596 1.644v0.055c0 1.165 0.538 1.644 1.596 1.644h0.04c1.058 0 1.595-0.48 1.595-1.644v-0.055c0-1.161-0.537-1.644-1.595-1.644H37.206zM24.31 73.986c-1.058 0-1.596 0.484-1.596 1.644v0.055c0 1.165 0.537 1.644 1.596 1.644h0.038c1.058 0 1.596-0.48 1.596-1.644v-0.055c0-1.161-0.537-1.644-1.596-1.644H24.31zM28.561 68.332c-1.059 0-1.597 0.484-1.597 1.644v0.055c0 1.165 0.537 1.644 1.597 1.644h0.038c1.058 0 1.595-0.48 1.595-1.644v-0.055c0-1.161-0.537-1.644-1.595-1.644H28.561zM47.508 50.846v-0.055c0-1.162-0.536-1.644-1.594-1.644h-0.04c-1.058 0-1.596 0.482-1.596 1.644v0.055c0 1.165 0.537 1.644 1.596 1.644h0.04C46.972 52.491 47.508 52.011 47.508 50.846zM50.239 44.21c1.058 0 1.596-0.48 1.596-1.644v-0.055c0-1.162-0.537-1.644-1.596-1.644H50.2c-1.058 0-1.596 0.482-1.596 1.644v0.055c0 1.165 0.537 1.644 1.596 1.644H50.239zM41.328 73.986h-0.038c-1.057 0-1.595 0.484-1.595 1.644v0.055c0 1.165 0.537 1.644 1.595 1.644h0.038c1.059 0 1.596-0.48 1.596-1.644v-0.055C42.925 74.47 42.388 73.986 41.328 73.986zM80.922 54.232H59.491v-5.806h17.841c0.011 0 0.022-0.005 0.033-0.006 0.018 0.001 0.035 0.003 0.053 0.003 0.053 0 0.105-0.008 0.155-0.029l1.913-0.772c0.233-0.094 0.347-0.362 0.253-0.595L69.167 21.231c0.292-0.176 0.568-0.384 0.82-0.634 1.057-1.056 1.46-2.558 1.456-4.271V16.18c0.004-1.712-0.399-3.212-1.455-4.269-1.055-1.048-2.516-1.415-4.081-1.415h-0.142c-1.566 0-3.026 0.367-4.083 1.415-1.056 1.058-1.46 2.557-1.454 4.269v0.145c-0.005 1.714 0.399 3.216 1.456 4.271 0.319 0.317 0.679 0.563 1.062 0.764l-5.641 13.763c-0.596-0.307-1.27-0.482-1.987-0.482H20.328c-2.417 0.001-4.376 1.956-4.377 4.374v9.157h0.028c-0.08 0.069-0.163 0.133-0.239 0.21-1.165 1.171-1.584 2.806-1.581 4.6l-0.001 0.116c-0.003 1.813 0.414 3.451 1.581 4.626 0.106 0.107 0.223 0.203 0.339 0.299h-0.127v21.688c0.001 2.418 1.96 4.376 4.376 4.376l23.804 0.002v-2.956H20.328c-0.784-0.001-1.419-0.636-1.421-1.421l0.001-16.184c1.124 0.961 2.379 1.581 3.779 1.584 0.16 0 0.317-0.014 0.475-0.031 0.099 0.119 0.196 0.237 0.306 0.349 1.169 1.162 2.802 1.58 4.594 1.58h0.147c1.795 0 3.428-0.418 4.6-1.58 0.115-0.116 0.218-0.24 0.321-0.364 0.15 0.014 0.301 0.029 0.454 0.029 1.658-0.003 3.116-0.865 4.388-2.143l0.082-0.081c1.275-1.275 2.139-2.731 2.143-4.39-0.001-0.159-0.015-0.315-0.031-0.471 0.119-0.098 0.239-0.196 0.35-0.307 1.167-1.174 1.585-2.813 1.58-4.614v-0.116c0.003-1.799-0.413-3.438-1.58-4.614-0.115-0.114-0.238-0.217-0.364-0.318 0.015-0.151 0.031-0.301 0.031-0.455-0.004-1.658-0.867-3.114-2.145-4.386l-0.081-0.082c-1.274-1.277-2.731-2.142-4.389-2.145-0.16 0-0.317 0.015-0.475 0.031-0.097-0.118-0.194-0.236-0.305-0.346-1.169-1.161-2.801-1.581-4.591-1.581h-0.16c-1.793 0-3.422 0.419-4.592 1.581-0.114 0.115-0.217 0.239-0.319 0.363-0.151-0.014-0.302-0.03-0.456-0.031-1.393 0.004-2.642 0.618-3.761 1.571l-0.001-3.546c0.002-0.784 0.637-1.419 1.421-1.421h34.788c0.322 0.001 0.616 0.112 0.853 0.294l-3.744 9.136c-0.094 0.233 0.019 0.502 0.251 0.595l1.913 0.772c0.056 0.023 0.113 0.033 0.174 0.033 0 0 0.004 0 0.009 0l0.004 0.001h1.959v5.806h-5.803c-2.419 0-4.376 1.958-4.378 4.375v27.016C46.356 88.041 48.314 90 50.733 90h30.189c2.416 0 4.375-1.959 4.375-4.376l0.002-27.016C85.297 56.19 83.339 54.232 80.922 54.232zM20.25 61.019l-0.078-0.077c-0.652-0.655-1.02-1.215-1.198-1.703 0.489 0.075 1.002 0.116 1.538 0.116h0.226c0.401 0 0.789-0.024 1.166-0.066-0.041 0.376-0.065 0.763-0.064 1.165v0.167c-0.001 0.559 0.041 1.09 0.121 1.596C21.469 62.04 20.908 61.673 20.25 61.019zM25.28 60.914c-0.224 0.223-0.433 0.407-0.636 0.571-0.027-0.262-0.046-0.544-0.046-0.864v-0.167c0.001-1.07 0.169-1.791 0.416-2.286 0.181-0.135 0.354-0.28 0.516-0.441 0.162-0.164 0.305-0.336 0.437-0.516 0.152-0.076 0.324-0.141 0.521-0.197 0.1 0.178 0.177 0.348 0.232 0.51-0.031 0.217-0.049 0.437-0.05 0.662 0.001 0.231 0.022 0.459 0.055 0.685-0.174 0.527-0.565 1.159-1.326 1.926L25.28 60.914zM26.57 53.041v-0.055c0-1.161 0.538-1.644 1.596-1.644h0.04c1.058 0 1.595 0.484 1.595 1.644v0.055c0 1.165-0.537 1.644-1.595 1.644h-0.04C27.108 54.685 26.57 54.205 26.57 53.041zM28.195 64.252h-0.114c-0.922-0.002-1.576-0.137-2.047-0.355 0.409-0.299 0.809-0.641 1.197-1.031l0.118-0.119h0.003c0.289-0.29 0.549-0.586 0.79-0.886 0.237 0.295 0.494 0.586 0.779 0.87l0.119 0.117c0.394 0.396 0.798 0.743 1.214 1.044C29.781 64.111 29.124 64.249 28.195 64.252zM33.249 56.156c-0.135-0.18-0.28-0.353-0.441-0.513-0.162-0.16-0.333-0.303-0.512-0.437-0.076-0.152-0.142-0.326-0.199-0.524 0.178-0.101 0.349-0.177 0.509-0.232 0.217 0.031 0.437 0.051 0.662 0.051 0.232 0 0.46-0.021 0.688-0.055 0.526 0.173 1.157 0.564 1.924 1.326l0.116 0.117c0.224 0.224 0.407 0.434 0.571 0.636-0.262 0.028-0.543 0.047-0.863 0.049h-0.162c-0.004 0-0.008 0-0.008 0C34.464 56.571 33.744 56.403 33.249 56.156zM36.101 60.921l-0.08 0.081c-0.654 0.65-1.213 1.017-1.701 1.195 0.077-0.5 0.118-1.024 0.117-1.574l0.003-0.002v-0.167c0-0.41-0.026-0.804-0.068-1.187 0.37 0.039 0.749 0.064 1.144 0.064h0.023l0.16 0.002h0.02c0.553 0 1.079-0.042 1.58-0.121C37.121 59.702 36.755 60.263 36.101 60.921zM37.931 52.132c0.395-0.394 0.741-0.8 1.044-1.214 0.22 0.471 0.358 1.127 0.36 2.055v0.116c-0.003 0.922-0.139 1.576-0.357 2.047-0.298-0.409-0.641-0.809-1.031-1.197l-0.117-0.117-0.001-0.002c-0.29-0.29-0.586-0.551-0.886-0.792 0.295-0.237 0.586-0.494 0.87-0.779L37.931 52.132zM36.003 45.069l0.081 0.082c0.651 0.654 1.018 1.211 1.196 1.698-0.496-0.076-1.013-0.117-1.562-0.117 0 0-0.005 0-0.012 0h-0.168v0.01h-0.001v-0.01h-0.021c-0.402 0-0.789 0.024-1.167 0.065 0.041-0.376 0.065-0.762 0.064-1.165v-0.168c0.001-0.558-0.041-1.089-0.121-1.597C34.783 44.047 35.345 44.414 36.003 45.069zM32.29 50.871c0.173-0.13 0.339-0.269 0.495-0.425 0.167-0.167 0.315-0.346 0.454-0.531 0.496-0.251 1.218-0.421 2.3-0.423h0.322c0.255 0.005 0.482 0.022 0.698 0.045-0.165 0.205-0.351 0.418-0.577 0.645l-0.118 0.117c-0.76 0.757-1.387 1.147-1.912 1.323-0.219-0.031-0.441-0.051-0.667-0.051-0.232 0-0.459 0.021-0.682 0.054-0.16-0.054-0.33-0.13-0.507-0.228C32.149 51.198 32.215 51.023 32.29 50.871zM31.679 60.624c0 0.315-0.019 0.593-0.046 0.852-0.204-0.165-0.417-0.351-0.643-0.576l-0.116-0.117c-0.758-0.762-1.149-1.389-1.325-1.914 0.032-0.219 0.051-0.441 0.051-0.665-0.001-0.232-0.022-0.459-0.055-0.684 0.055-0.16 0.131-0.331 0.23-0.509 0.196 0.055 0.369 0.121 0.523 0.194 0.129 0.174 0.269 0.34 0.424 0.497 0.167 0.169 0.348 0.317 0.536 0.456 0.25 0.496 0.42 1.218 0.421 2.297V60.624zM30.973 45.172c0.224-0.222 0.433-0.407 0.636-0.57 0.027 0.261 0.046 0.544 0.047 0.863v0.168c-0.003 1.072-0.171 1.792-0.418 2.288-0.179 0.133-0.351 0.278-0.512 0.439-0.162 0.162-0.304 0.335-0.437 0.514-0.153 0.076-0.326 0.142-0.523 0.199-0.101-0.178-0.178-0.346-0.232-0.508 0.031-0.218 0.05-0.439 0.051-0.664-0.001-0.233-0.023-0.463-0.056-0.69 0.174-0.527 0.564-1.156 1.325-1.919L30.973 45.172zM28.057 41.836h0.117c0.92 0.003 1.575 0.138 2.046 0.354-0.409 0.3-0.809 0.643-1.198 1.033l-0.115 0.117h-0.001c-0.292 0.289-0.552 0.585-0.793 0.886-0.238-0.294-0.494-0.584-0.779-0.868l-0.124-0.122c-0.392-0.393-0.796-0.739-1.209-1.04C26.472 41.977 27.128 41.839 28.057 41.836zM24.574 45.466c0.001-0.315 0.019-0.594 0.046-0.853 0.205 0.165 0.418 0.351 0.644 0.577l0.123 0.123c0.752 0.755 1.142 1.38 1.317 1.903-0.031 0.221-0.051 0.443-0.051 0.667 0.001 0.232 0.022 0.459 0.055 0.684-0.055 0.162-0.131 0.331-0.231 0.509-0.196-0.055-0.369-0.119-0.522-0.194-0.13-0.173-0.271-0.341-0.426-0.498-0.167-0.168-0.346-0.316-0.535-0.456-0.249-0.494-0.418-1.217-0.42-2.295V45.466zM23.963 55.217c-0.173 0.13-0.339 0.27-0.496 0.426-0.166 0.167-0.315 0.345-0.453 0.531-0.495 0.25-1.217 0.42-2.298 0.422h-0.171c-0.315-0.001-0.592-0.019-0.85-0.046 0.165-0.204 0.351-0.416 0.576-0.643l0.118-0.115c0.762-0.759 1.39-1.15 1.915-1.326 0.219 0.031 0.44 0.05 0.664 0.05 0.232 0 0.459-0.021 0.682-0.054 0.162 0.054 0.331 0.13 0.511 0.23C24.104 54.889 24.038 55.064 23.963 55.217zM23.001 49.929c0.135 0.181 0.281 0.355 0.443 0.517 0.163 0.16 0.336 0.305 0.516 0.439 0.076 0.151 0.141 0.324 0.197 0.52-0.178 0.1-0.347 0.178-0.509 0.233-0.218-0.032-0.439-0.051-0.664-0.051-0.232 0-0.46 0.022-0.688 0.055-0.527-0.174-1.157-0.564-1.921-1.325L20.257 50.2c-0.223-0.225-0.408-0.435-0.573-0.639 0.262-0.028 0.544-0.046 0.865-0.047h0.169C21.787 49.516 22.504 49.682 23.001 49.929zM20.149 45.167L20.22 45.1c0.663-0.659 1.224-1.03 1.712-1.211-0.078 0.502-0.118 1.026-0.117 1.576v0.168c-0.001 0.41 0.024 0.803 0.066 1.186-0.369-0.039-0.749-0.064-1.143-0.064h-0.205c-0.553 0-1.08 0.042-1.583 0.121C19.127 46.387 19.494 45.826 20.149 45.167zM19.311 53.059c-0.296 0.238-0.586 0.495-0.87 0.78l-0.118 0.114c-0.395 0.395-0.743 0.802-1.045 1.217-0.219-0.472-0.358-1.129-0.36-2.056l0.001-0.1 0.002-0.226c0.021-0.813 0.151-1.405 0.351-1.839 0.3 0.41 0.644 0.811 1.035 1.201l0.118 0.118C18.714 52.557 19.009 52.818 19.311 53.059zM74.454 57.188h6.468c0.189 0.001 0.367 0.039 0.531 0.106l-2.899 2.917c-0.049-0.053-0.09-0.11-0.141-0.162-1.168-1.16-2.8-1.58-4.591-1.58h-0.137c-0.176 0-0.348 0.007-0.519 0.015L74.454 57.188zM69.846 69.662l2.181-0.153-1.274-1.964c-0.316-0.482-0.553-1.277-0.552-2.521v-0.169c0.003-1.576 0.362-2.405 0.816-2.854 0.45-0.451 1.243-0.771 2.668-0.775h0.115c1.423 0.004 2.215 0.323 2.666 0.775 0.456 0.449 0.813 1.278 0.817 2.854v0.169c0 1.244-0.237 2.039-0.553 2.521l-1.274 1.964 2.182 0.153c0.013 0.015 0.03 0.037 0.05 0.065l3.968 5.42-2.291 0.165-0.947 2.236-4.679-6.391-4.678 6.39-0.947-2.234-2.29-0.165 3.97-5.418C69.816 69.702 69.832 69.68 69.846 69.662zM62.984 16.18c0.004-1.33 0.304-1.981 0.644-2.316 0.337-0.34 0.959-0.607 2.157-0.61h0.099c1.196 0.003 1.819 0.27 2.156 0.61 0.34 0.335 0.64 0.986 0.644 2.316v0.145c-0.004 1.333-0.305 1.983-0.644 2.318-0.335 0.337-0.957 0.603-2.156 0.607h-0.099c-1.202-0.003-1.821-0.269-2.157-0.607-0.339-0.335-0.64-0.985-0.644-2.318V16.18zM56.089 45.45l9.608-23.445c0.029 0 0.059 0.003 0.088 0.003h0.131c0.117 0 0.231-0.006 0.347-0.01l9.611 23.453H56.089zM49.31 58.607c0.001-0.784 0.637-1.419 1.422-1.42h2.456l-3.879 3.903V58.607zM49.31 68.214l10.959-11.027h7.105L49.31 75.363V68.214zM50.733 87.045c-0.785 0-1.421-0.636-1.422-1.421v-3.137l18.151-18.263c-0.01 0.208-0.018 0.418-0.018 0.632v0.169c0.001 1.009 0.12 1.927 0.391 2.747-0.098 0.105-0.187 0.216-0.266 0.328l-4.202 5.738c-0.33 0.454-0.604 1.002-0.609 1.671-0.001 0.185 0.028 0.358 0.068 0.526l-10.942 11.01H50.733zM58.965 87.045l7.802-7.85 0.28 0.659 0.307 0.224c0.425 0.31 0.96 0.584 1.627 0.589h0.008c0.926 0 1.659-0.589 2.079-1.188l2.672-3.652 1.475 2.015-9.148 9.203H58.965zM82.342 85.624c0 0.785-0.636 1.421-1.42 1.422h-7.774l9.122-9.178 0.072-0.005V85.624zM82.342 70.671l-0.313 0.316L79.916 68.1c-0.08-0.112-0.168-0.223-0.266-0.328 0.194-0.584 0.307-1.219 0.357-1.9l2.334-2.349V70.671zM42.925 63.667c0-1.161-0.537-1.644-1.596-1.644h-0.038c-1.057 0-1.595 0.483-1.595 1.644v0.055c0 1.165 0.537 1.644 1.595 1.644h0.038c1.059 0 1.596-0.48 1.596-1.644V63.667z" fill="#f98e54" data-fill-palette-color="accent"></path></g></g></svg></g></svg></g></svg></g><defs></defs></svg><rect width="395.52" height="141.73484462720194" fill="none" stroke="none" visibility="hidden"></rect></g></svg></g></svg>